<svg
    xmlns="http://www.w3.org/2000/svg"
    viewBox="0 0 531 531"
    id="vector">
    <path
        id="path"
        d="M 81.227 422.112 L 415.65 75.935 L 450.268 109.377 L 115.845 455.555 L 81.227 422.112 Z"
        fill="#ff0000"/>
    <path
        id="path_1"
        d="M 531.503 265.749 C 531.503 336.203 503.485 403.844 453.667 453.663 C 403.848 503.481 336.207 531.499 265.753 531.499 C 195.299 531.499 127.658 503.481 77.839 453.663 C 28.021 403.844 0.003 336.203 0.003 265.749 C 0.003 195.295 28.021 127.654 77.839 77.835 C 127.658 28.017 195.299 -0.001 265.753 -0.001 C 336.207 -0.001 403.848 28.017 453.667 77.835 C 503.485 127.654 531.503 195.295 531.503 265.749 Z"
        fill="#00d400"/>
    <path
        id="path_2"
        d="M 485.446 265.74 C 485.545 312.183 470.912 357.481 443.662 395.089 C 416.412 432.697 377.923 460.711 333.76 475.081 C 289.596 489.452 241.993 489.452 197.829 475.081 C 153.666 460.711 115.177 432.697 87.927 395.089 C 60.677 357.481 46.044 312.183 46.143 265.74 C 46.044 219.297 60.677 173.999 87.927 136.391 C 115.177 98.783 153.666 70.769 197.829 56.399 C 241.993 42.028 289.596 42.028 333.76 56.399 C 377.923 70.769 416.412 98.783 443.662 136.391 C 470.912 173.999 485.545 219.297 485.446 265.74 Z"
        fill="#ffffff"/>
    <path
        id="path_3"
        d="M 456.746 283.358 L 131.363 283.358 L 131.363 335.251 L 456.746 335.251 Z"
        fill="#000000"/>
    <path
        id="path_4"
        d="M 121.803 282.387 L 104.154 282.387 L 104.154 335.258 L 121.803 335.258 Z"
        fill="#000000"/>
    <path
        id="path_5"
        d="M 94.525 282.236 L 76.953 282.236 L 76.953 335.26 L 94.525 335.26 Z"
        fill="#000000"/>
    <path
        id="path_6"
        d="M 121.803 273.906 L 121.803 251.823 C 121.803 235.821 128.793 224.941 150.666 224.941 L 196.996 224.941 C 219.245 224.941 237.774 208.938 237.774 181.997 C 237.883 178.126 236.769 171.902 236.769 171.902 C 254.68 170.784 285.343 154.413 285.343 118.992 C 285.343 91.995 264.392 67.006 234.708 66.969 L 234.505 84.555 C 250.339 84.555 267.531 96.797 267.531 118.531 C 267.531 153.368 232.656 154.831 228.156 154.831 C 218.753 154.831 211.671 161.182 218.753 172.187 C 223.433 179.459 218.753 207.065 199.716 207.065 L 156.789 207.065 C 119.566 207.065 104.069 224.802 104.069 250.937 C 104.069 261.271 104.069 258.716 104.146 273.982 L 121.801 273.905 Z"
        fill="#000000"/>
    <path
        id="path_7"
        d="M 94.439 274.143 L 94.516 240.508 C 94.516 212.739 117.227 183.964 146.012 183.964 L 173.358 183.964 C 182.426 183.964 192.46 179.026 182.003 165.653 C 164.255 135.488 181.159 101.565 216.956 101.565 C 217.011 101.565 216.956 84.017 216.956 84.017 C 171.181 85.343 146.079 123.623 162.458 165.654 C 91.971 161.73 76.941 217.319 76.941 243.04 L 76.941 273.912 L 94.436 274.143 Z"
        fill="#000000"/>
    <path
        id="path_8"
        d="M 81.227 422.112 L 415.65 75.935 L 450.268 109.377 L 115.845 455.555 L 81.227 422.112 Z"
        fill="#ff0000"/>
    <path
        id="path_9"
        d="M 531.503 265.749 C 531.503 336.203 503.485 403.844 453.667 453.663 C 403.848 503.481 336.207 531.499 265.753 531.499 C 195.299 531.499 127.658 503.481 77.839 453.663 C 28.021 403.844 0.003 336.203 0.003 265.749 C 0.003 195.295 28.021 127.654 77.839 77.835 C 127.658 28.017 195.299 -0.001 265.753 -0.001 C 336.207 -0.001 403.848 28.017 453.667 77.835 C 503.485 127.654 531.503 195.295 531.503 265.749 Z"
        fill="#ff0000"/>
    <path
        id="path_10"
        d="M 485.446 265.74 C 485.545 312.183 470.912 357.481 443.662 395.089 C 416.412 432.697 377.923 460.711 333.76 475.081 C 289.596 489.452 241.993 489.452 197.829 475.081 C 153.666 460.711 115.177 432.697 87.927 395.089 C 60.677 357.481 46.044 312.183 46.143 265.74 C 46.044 219.297 60.677 173.999 87.927 136.391 C 115.177 98.783 153.666 70.769 197.829 56.399 C 241.993 42.028 289.596 42.028 333.76 56.399 C 377.923 70.769 416.412 98.783 443.662 136.391 C 470.912 173.999 485.545 219.297 485.446 265.74 Z"
        fill="#ffffff"/>
    <path
        id="path_11"
        d="M 456.746 283.358 L 131.363 283.358 L 131.363 335.251 L 456.746 335.251 Z"
        fill="#000000"/>
    <path
        id="path_12"
        d="M 121.803 282.387 L 104.154 282.387 L 104.154 335.258 L 121.803 335.258 Z"
        fill="#000000"/>
    <path
        id="path_13"
        d="M 94.525 282.236 L 76.953 282.236 L 76.953 335.26 L 94.525 335.26 Z"
        fill="#000000"/>
    <path
        id="path_14"
        d="M 121.803 273.906 L 121.803 251.823 C 121.803 235.821 128.793 224.941 150.666 224.941 L 196.996 224.941 C 219.245 224.941 237.774 208.938 237.774 181.997 C 237.883 178.126 236.769 171.902 236.769 171.902 C 254.68 170.784 285.343 154.413 285.343 118.992 C 285.343 91.995 264.392 67.006 234.708 66.969 L 234.505 84.555 C 250.339 84.555 267.531 96.797 267.531 118.531 C 267.531 153.368 232.656 154.831 228.156 154.831 C 218.753 154.831 211.671 161.182 218.753 172.187 C 223.433 179.459 218.753 207.065 199.716 207.065 L 156.789 207.065 C 119.566 207.065 104.069 224.802 104.069 250.937 C 104.069 261.271 104.069 258.716 104.146 273.982 L 121.801 273.905 Z"
        fill="#000000"/>
    <path
        id="path_15"
        d="M 94.439 274.143 L 94.516 240.508 C 94.516 212.739 117.227 183.964 146.012 183.964 L 173.358 183.964 C 182.426 183.964 192.46 179.026 182.003 165.653 C 164.255 135.488 181.159 101.565 216.956 101.565 C 217.011 101.565 216.956 84.017 216.956 84.017 C 171.181 85.343 146.079 123.623 162.458 165.654 C 91.971 161.73 76.941 217.319 76.941 243.04 L 76.941 273.912 L 94.436 274.143 Z"
        fill="#000000"/>
</svg>
